# Blender v2.79 (sub 7) OBJ File: 'simple.range'
# www.blender.org
mtllib simple.mtl
o simple_Cube.001
v -0.159970 0.522485 0.276658
v -0.159970 0.854373 0.137033
v -0.159970 0.522485 -0.544319
v -0.159970 0.854373 -0.683944
v 0.159970 0.522485 0.276658
v 0.159970 0.854373 0.137033
v 0.159970 0.522485 -0.544319
v 0.159970 0.854373 -0.683944
v -0.159970 0.968037 1.835195
v -0.159970 1.105552 -2.199592
v 0.159970 1.105552 -2.199592
v 0.159970 0.968037 1.835195
v -0.159970 1.978557 1.835195
v -0.159970 1.978557 -2.277508
v 0.159970 1.978557 -2.277508
v 0.159970 1.978557 1.835195
v -0.103067 1.433703 -2.678928
v 0.103067 1.433703 -2.678928
v -0.103067 1.974453 -2.678928
v 0.103067 1.974453 -2.678928
v 0.159970 1.473297 -2.277508
v 0.159970 1.473297 1.835195
v -0.159970 1.473297 1.835195
v -0.159970 1.473297 -2.277508
v 0.103067 1.648919 -2.678928
v -0.103067 1.648919 -2.678928
v -0.046367 1.929415 -6.650330
v -0.018447 1.957335 -6.650330
v 0.018447 1.957335 -6.650330
v 0.046367 1.929415 -6.650330
v 0.046367 1.891146 -6.650330
v 0.018447 1.863227 -6.650330
v -0.018447 1.863227 -6.650330
v -0.046367 1.891146 -6.650330
v -0.042683 1.510666 -2.689802
v 0.042683 1.510666 -2.689802
v -0.042683 1.645479 -2.689802
v 0.042683 1.645479 -2.689802
v -0.042683 1.510666 -4.054874
v 0.042683 1.510666 -4.054874
v -0.042683 1.645479 -4.054874
v 0.042683 1.645479 -4.054874
v -0.042683 1.583615 -4.263120
v 0.042683 1.583615 -4.263120
v -0.042683 1.679966 -4.168828
v 0.042683 1.679966 -4.168828
v -0.042683 1.733011 -4.392732
v 0.042683 1.733011 -4.392732
v -0.042683 1.769868 -4.263054
v 0.042683 1.769868 -4.263054
v -0.042683 1.876285 -4.426421
v 0.042683 1.876285 -4.426421
v -0.042683 1.877000 -4.291609
v 0.042683 1.877000 -4.291609
v 0.065060 0.859844 1.295210
v -0.065060 0.859844 1.295210
v 0.065060 0.897493 1.837194
v -0.065060 0.897493 1.837194
v 0.065060 -0.149112 1.520653
v -0.065060 -0.149112 1.520653
v 0.065060 -0.153283 2.063926
v -0.065060 -0.153283 2.063926
v 0.033790 0.639211 1.342039
v -0.033790 0.639211 1.342039
v 0.033790 0.587892 1.353506
v -0.033790 0.587892 1.353506
v 0.033790 0.613368 1.226380
v -0.033790 0.613368 1.226380
v 0.033790 0.562049 1.237846
v -0.033790 0.562049 1.237846
v 0.033790 0.608222 0.973736
v -0.033790 0.608222 0.973736
v 0.033790 0.555642 0.973030
v -0.033790 0.555642 0.973030
v 0.033790 0.649911 0.863169
v -0.033790 0.649911 0.863169
v 0.033790 0.608625 0.830602
v -0.033790 0.608625 0.830602
v 0.033790 0.746947 0.799872
v -0.033790 0.746947 0.799872
v 0.033790 0.722766 0.753177
v -0.033790 0.722766 0.753177
v 0.033790 0.860492 0.780377
v -0.033790 0.860492 0.780377
v 0.033790 0.859978 0.727795
v -0.033790 0.859978 0.727795
v 0.063765 1.421455 1.996517
v -0.063764 1.421455 1.996517
v 0.063765 1.926561 1.996517
v -0.063764 1.926561 1.996517
v 0.092766 1.674008 1.996517
v -0.092765 1.674008 1.996517
v 0.064148 1.183407 5.140384
v -0.063381 1.183407 5.140384
v 0.064112 1.949268 5.140316
v -0.063344 1.949268 5.140316
v 0.140381 0.592589 5.447025
v -0.139613 0.592589 5.447025
v 0.140381 1.996581 5.447025
v -0.139613 1.996581 5.447025
v 0.140376 1.657686 5.337300
v -0.139617 1.657686 5.337300
v 0.087975 0.628753 5.495809
v -0.087209 0.628753 5.495809
v 0.087975 1.960417 5.495809
v -0.087209 1.960417 5.495809
v 0.087972 1.657686 5.386084
v -0.087212 1.657686 5.386084
v -0.063764 1.825566 2.131756
v 0.063765 1.825566 2.131756
v -0.063764 1.527278 2.131756
v 0.069816 1.578557 5.025607
v -0.069048 1.578557 5.025607
v -0.063381 1.817832 5.025607
v -0.063381 1.355799 5.025607
v 0.063765 1.527278 2.131756
v 0.064148 1.355799 5.025607
v 0.064148 1.817832 5.025607
v 0.140372 1.231111 5.341181
v 0.087970 1.231111 5.390970
v -0.139621 1.231111 5.341390
v -0.087215 1.231111 5.391000
v -0.022317 1.967206 -2.693435
v -0.056094 1.933429 -2.693435
v -0.097615 1.967540 -2.680913
v 0.056094 1.933429 -2.693435
v 0.022317 1.967206 -2.693435
v 0.097615 1.967540 -2.680913
v 0.022317 1.853356 -2.693435
v 0.056094 1.887133 -2.693435
v 0.080987 1.747321 -2.686969
v -0.056094 1.887133 -2.693435
v -0.022317 1.853356 -2.693435
v -0.080987 1.747321 -2.686969
v -0.056094 1.933429 -6.650330
v -0.022317 1.967206 -6.650330
v 0.022317 1.967206 -6.650330
v 0.056094 1.933429 -6.650330
v 0.056094 1.887133 -6.650330
v 0.022317 1.853356 -6.650330
v -0.022317 1.853356 -6.650330
v -0.056094 1.887133 -6.650330
v -0.046367 1.929416 -2.725610
v -0.046367 1.891148 -2.725610
v -0.018447 1.863228 -2.725610
v 0.018447 1.863228 -2.725610
v -0.018447 1.957336 -2.725610
v 0.046367 1.891148 -2.725610
v 0.046367 1.929416 -2.725610
v 0.018447 1.957336 -2.725610
v -0.014228 1.853923 -4.423078
v 0.014228 1.853923 -4.423078
v -0.014228 1.854637 -4.288267
v 0.014228 1.854637 -4.288267
vn -1.0000 0.0000 0.0000
vn 0.0000 -0.3878 -0.9218
vn 1.0000 0.0000 0.0000
vn 0.0000 0.3878 0.9218
vn 0.0000 -1.0000 0.0000
vn 0.0000 -0.9865 -0.1635
vn 0.6020 -0.7967 0.0538
vn 0.0000 1.0000 0.0000
vn 0.9998 0.0000 0.0187
vn -0.9901 0.0000 -0.1403
vn 0.0000 0.9999 -0.0102
vn 0.0000 -0.8252 -0.5649
vn 0.9902 -0.0185 -0.1385
vn 0.9901 0.0000 -0.1403
vn 0.1772 0.0000 -0.9842
vn -0.9902 -0.0185 -0.1385
vn -0.8812 0.0000 0.4727
vn 0.0001 0.0000 -1.0000
vn 0.0000 -0.0737 -0.9973
vn 0.0000 0.7995 -0.6006
vn -0.7071 0.7071 -0.0000
vn 0.3097 0.0023 -0.9508
vn -0.3097 0.0023 -0.9508
vn 0.0000 0.9535 -0.3015
vn 0.0000 -0.1399 -0.9902
vn -0.1772 0.0000 -0.9842
vn 0.0000 -0.9438 -0.3306
vn 0.0000 0.9571 0.2897
vn 0.0000 0.2745 0.9616
vn 0.0000 -0.6553 -0.7553
vn 0.0000 0.7235 0.6903
vn 0.6182 0.7860 -0.0042
vn 0.0000 -0.2380 -0.9713
vn -0.6020 -0.7967 0.0538
vn 0.0000 0.0283 0.9996
vn 0.0000 -1.0000 0.0047
vn 0.0000 -1.0000 -0.0077
vn 0.0768 -0.2174 -0.9730
vn 0.0000 0.2109 0.9775
vn 0.0000 -0.2076 -0.9782
vn -0.0768 -0.2174 -0.9730
vn 0.0000 -0.2212 -0.9752
vn 0.0000 0.9998 -0.0204
vn 0.0000 0.9759 -0.2181
vn 0.0000 -0.9759 0.2181
vn 0.0000 -0.9997 0.0242
vn 0.0000 -0.9373 -0.3487
vn 0.0000 0.9357 0.3528
vn 0.0000 0.5463 0.8376
vn 0.0000 -0.5614 -0.8276
vn 0.0000 1.0000 -0.0098
vn 0.0000 -0.1819 -0.9833
vn 0.0000 0.1692 0.9856
vn 0.9642 0.0817 -0.2524
vn 0.0000 0.9518 0.3068
vn 0.0000 1.0000 -0.0072
vn 0.0000 -0.3352 0.9421
vn 0.8812 0.0000 0.4727
vn 0.0000 -0.9971 -0.0755
vn -0.6844 0.0077 0.7291
vn 0.9378 -0.0568 -0.3425
vn 0.0000 0.9883 -0.1525
vn -0.9335 -0.0012 -0.3585
vn -0.9642 0.0817 -0.2524
vn 0.0000 -0.4607 -0.8876
vn 0.0001 0.0115 0.9999
vn -0.7044 -0.2297 0.6716
vn 0.0000 0.8033 0.5955
vn 0.7044 -0.2297 0.6716
vn 0.7017 0.1193 0.7024
vn 0.0000 -0.8033 0.5955
vn -1.0000 0.0002 0.0001
vn 1.0000 0.0001 -0.0001
vn -0.9998 0.0000 0.0187
vn -1.0000 -0.0000 0.0001
vn 1.0000 0.0000 -0.0001
vn 0.0000 -1.0000 -0.0027
vn 0.0000 0.9982 0.0592
vn 0.0000 0.0000 1.0000
vn 0.9910 0.0000 0.1336
vn -0.9910 0.0000 0.1336
vn 0.0000 0.0000 -1.0000
vn 0.6851 0.0075 0.7284
vn 0.9335 -0.0012 -0.3586
vn -0.9379 -0.0566 -0.3423
vn -0.7011 0.1192 0.7030
vn 0.0001 0.1714 0.9852
vn 0.0000 -0.3408 0.9402
vn -0.1612 0.1612 -0.9737
vn 0.1612 0.1612 -0.9737
vn 0.0392 -0.0392 -0.9985
vn -0.0392 -0.0392 -0.9985
vn -0.7071 -0.7071 0.0000
vn 0.7071 -0.7071 0.0000
vn 0.7071 0.7071 0.0000
vn -0.0001 0.0000 -1.0000
vn -0.6182 0.7860 -0.0042
vn 0.0000 1.0000 -0.0053
usemtl None
s off
f 1//1 2//1 4//1 3//1
f 3//2 4//2 8//2 7//2
f 7//3 8//3 6//3 5//3
f 5//4 6//4 2//4 1//4
f 3//5 7//5 5//5 1//5
f 8//6 4//6 10//6 11//6
f 22//3 21//3 15//3 16//3
f 6//3 8//3 11//3 12//3
f 4//1 2//1 9//1 10//1
f 6//7 12//7 57//7 55//7
f 15//8 14//8 13//8 16//8
f 24//1 23//1 13//1 14//1
f 95//9 93//9 117//9 112//9 118//9
f 24//10 14//10 19//10 26//10
f 132//1 124//1 135//1 142//1
f 14//11 15//11 20//11 19//11
f 11//12 10//12 17//12 18//12
f 21//13 11//13 18//13 25//13
f 15//14 21//14 25//14 20//14
f 25//15 18//15 36//15 38//15
f 10//16 24//16 26//16 17//16
f 23//17 9//17 88//17 92//17 90//17 13//17
f 10//1 9//1 23//1 24//1
f 12//3 11//3 21//3 22//3
f 138//18 139//18 31//18 30//18
f 129//5 133//5 141//5 140//5
f 25//19 26//19 134//19 133//19 129//19 131//19
f 19//20 20//20 128//20 127//20 123//20 125//20
f 31//21 32//21 146//21 148//21
f 20//22 25//22 131//22 130//22 126//22 128//22
f 126//3 130//3 139//3 138//3
f 26//23 19//23 125//23 124//23 132//23 134//23
f 37//8 38//8 42//8 41//8
f 26//24 25//24 38//24 37//24
f 18//25 17//25 35//25 36//25
f 17//26 26//26 37//26 35//26
f 39//1 41//1 45//1 43//1
f 35//1 37//1 41//1 39//1
f 38//3 36//3 40//3 42//3
f 36//5 35//5 39//5 40//5
f 46//3 44//3 48//3 50//3
f 42//3 40//3 44//3 46//3
f 40//27 39//27 43//27 44//27
f 41//28 42//28 46//28 45//28
f 49//29 50//29 54//29 154//29 153//29 53//29
f 44//30 43//30 47//30 48//30
f 45//31 46//31 50//31 49//31
f 43//1 45//1 49//1 47//1
f 151//32 51//32 53//32 153//32
f 47//1 49//1 53//1 51//1
f 50//3 48//3 52//3 54//3
f 48//33 47//33 51//33 151//33 152//33 52//33
f 55//3 57//3 61//3 59//3
f 9//34 2//34 56//34 58//34
f 12//35 9//35 58//35 57//35
f 2//36 6//36 55//36 56//36
f 60//37 59//37 61//37 62//37
f 55//38 59//38 65//38 63//38
f 58//1 56//1 60//1 62//1
f 57//39 58//39 62//39 61//39
f 63//3 65//3 69//3 67//3
f 56//40 55//40 63//40 64//40
f 60//41 56//41 64//41 66//41
f 59//42 60//42 66//42 65//42
f 68//43 67//43 71//43 72//43
f 64//44 63//44 67//44 68//44
f 66//1 64//1 68//1 70//1
f 65//45 66//45 70//45 69//45
f 74//1 72//1 76//1 78//1
f 70//1 68//1 72//1 74//1
f 69//46 70//46 74//46 73//46
f 67//3 69//3 73//3 71//3
f 75//3 77//3 81//3 79//3
f 73//47 74//47 78//47 77//47
f 71//3 73//3 77//3 75//3
f 72//48 71//48 75//48 76//48
f 82//1 80//1 84//1 86//1
f 76//49 75//49 79//49 80//49
f 78//1 76//1 80//1 82//1
f 77//50 78//50 82//50 81//50
f 84//51 83//51 85//51 86//51
f 81//52 82//52 86//52 85//52
f 79//3 81//3 85//3 83//3
f 80//53 79//53 83//53 84//53
f 95//54 99//54 101//54
f 16//55 13//55 90//55 89//55
f 89//56 90//56 96//56 95//56
f 9//57 12//57 87//57 88//57
f 12//58 22//58 16//58 89//58 91//58 87//58
f 88//59 87//59 93//59 94//59
f 102//60 121//60 122//60 108//60
f 93//61 119//61 97//61
f 95//62 96//62 100//62 99//62
f 96//63 94//63 121//63 102//63
f 96//64 102//64 100//64
f 94//65 93//65 97//65 98//65
f 107//66 108//66 122//66 120//66
f 100//67 102//67 108//67 106//67
f 99//68 100//68 106//68 105//68
f 101//69 99//69 105//69 107//69
f 97//70 119//70 120//70 103//70
f 98//71 97//71 103//71 104//71
f 96//72 90//72 109//72 114//72
f 89//73 95//73 118//73 110//73
f 94//74 96//74 114//74 113//74 115//74
f 88//75 94//75 115//75 111//75
f 93//76 87//76 116//76 117//76
f 109//77 110//77 118//77 114//77
f 115//78 117//78 116//78 111//78
f 109//79 111//79 116//79 110//79
f 87//80 91//80 89//80 110//80 116//80
f 92//81 88//81 111//81 109//81 90//81
f 117//82 115//82 113//82 114//82 118//82 112//82
f 120//83 119//83 101//83 107//83
f 119//84 93//84 95//84 101//84
f 121//85 94//85 98//85
f 122//86 121//86 98//86 104//86
f 120//87 122//87 104//87 103//87
f 108//88 107//88 105//88 106//88
f 123//89 124//89 125//89
f 126//90 127//90 128//90
f 129//91 130//91 131//91
f 132//92 133//92 134//92
f 132//93 142//93 141//93 133//93
f 139//94 130//94 129//94 140//94
f 137//95 127//95 126//95 138//95
f 123//21 136//21 135//21 124//21
f 123//8 127//8 137//8 136//8
f 142//96 135//96 27//96 34//96
f 139//82 140//82 32//82 31//82
f 140//82 141//82 33//82 32//82
f 141//82 142//82 34//82 33//82
f 135//82 136//82 28//82 27//82
f 137//82 138//82 30//82 29//82
f 136//82 137//82 29//82 28//82
f 148//82 146//82 145//82 144//82 143//82 147//82 150//82 149//82
f 32//8 33//8 145//8 146//8
f 28//5 29//5 150//5 147//5
f 29//93 30//93 149//93 150//93
f 27//94 28//94 147//94 143//94
f 34//3 27//3 143//3 144//3
f 30//1 31//1 148//1 149//1
f 33//95 34//95 144//95 145//95
f 52//97 152//97 154//97 54//97
f 152//98 151//98 153//98 154//98
o simple_pente_Cube.002
v -0.055983 -0.701160 0.256100
v -0.055983 -0.034767 0.379885
v -0.055983 -0.701160 -0.425010
v -0.055983 -0.034767 -0.301225
v 0.055983 -0.701160 0.256100
v 0.055983 -0.034767 0.379885
v 0.055983 -0.701160 -0.425010
v 0.055983 -0.034767 -0.301225
v -0.055983 0.749889 0.128528
v -0.055983 0.749889 -0.552582
v 0.055983 0.749889 0.128528
v 0.055983 0.749889 -0.552582
v -0.055983 -0.377289 0.365980
v -0.055983 -0.377289 -0.315130
v 0.055983 -0.377289 -0.315130
v 0.055983 -0.377289 0.365980
v 0.055983 0.292193 -0.366024
v 0.055983 0.292193 0.315085
v -0.055983 0.292193 0.315085
v -0.055983 0.292193 -0.366024
vn -1.0000 0.0000 0.0000
vn 0.0000 0.0406 -0.9992
vn 1.0000 -0.0000 0.0000
vn 0.0000 -0.0406 0.9992
vn 0.0000 -1.0000 0.0000
vn 0.0000 1.0000 0.0000
vn 0.0000 0.3775 0.9260
vn 0.0000 -0.3775 -0.9260
vn 0.0000 -0.3213 0.9470
vn 0.0000 0.3213 -0.9470
vn 0.0000 -0.1944 -0.9809
vn 0.0000 0.1944 0.9809
usemtl None
s off
f 167//99 156//99 158//99 168//99
f 168//100 158//100 162//100 169//100
f 169//101 162//101 160//101 170//101
f 170//102 160//102 156//102 167//102
f 157//103 161//103 159//103 155//103
f 172//101 171//101 166//101 165//101
f 166//104 164//104 163//104 165//104
f 174//99 173//99 163//99 164//99
f 173//105 172//105 165//105 163//105
f 171//106 174//106 164//106 166//106
f 159//107 170//107 167//107 155//107
f 161//101 169//101 170//101 159//101
f 157//108 168//108 169//108 161//108
f 155//99 167//99 168//99 157//99
f 162//109 158//109 174//109 171//109
f 156//110 160//110 172//110 173//110
f 158//99 156//99 173//99 174//99
f 160//101 162//101 171//101 172//101
